<svg width="113" height="82" viewBox="0 0 113 82" fill="none" xmlns="http://www.w3.org/2000/svg">
<path d="M22.6777 22.7665H78.7107" stroke="#222222" stroke-width="6.22588" stroke-linecap="round" stroke-linejoin="round"/>
<path fill-rule="evenodd" clip-rule="evenodd" d="M28.7867 41.6831L35.0126 41.5662C38.4504 41.5016 41.2897 44.2362 41.3543 47.674C41.355 47.713 41.3554 47.752 41.3554 47.791V53.9128C41.3554 57.3056 38.6387 60.0738 35.2464 60.1375L29.0205 60.2545C25.5827 60.3191 22.7434 57.5845 22.6788 54.1466C22.6781 54.1076 22.6777 54.0687 22.6777 54.0297V47.9079C22.6777 44.515 25.3944 41.7468 28.7867 41.6831Z" stroke="#222222" stroke-width="6.22588" stroke-linecap="round" stroke-linejoin="round"/>
<path fill-rule="evenodd" clip-rule="evenodd" d="M16.4518 4H84.9365C91.8134 4 97.3882 9.57484 97.3882 16.4518V78.8022H16.4518C9.57484 78.8022 4 73.2274 4 66.3505V16.4518C4 9.57484 9.57484 4 16.4518 4Z" stroke="#222222" stroke-width="6.22588" stroke-linecap="round" stroke-linejoin="round"/>
<path d="M53.8071 41.4442H78.7107" stroke="#222222" stroke-width="6.22588" stroke-linecap="round" stroke-linejoin="round"/>
<path d="M53.8071 60.1219H78.7107" stroke="#222222" stroke-width="6.22588" stroke-linecap="round" stroke-linejoin="round"/>
<path d="M94.2754 78.8025C102.872 78.8025 109.84 71.834 109.84 63.2378V22.7696H97.3883" stroke="#222222" stroke-width="6.22588" stroke-linecap="round" stroke-linejoin="round"/>
</svg>
