<svg width="175" height="175" viewBox="0 0 175 175" fill="none" xmlns="http://www.w3.org/2000/svg">
<path d="M109.375 131.25C121.456 131.25 131.25 121.456 131.25 109.375C131.25 97.2938 121.456 87.5 109.375 87.5C97.2938 87.5 87.5 97.2938 87.5 109.375C87.5 121.456 97.2938 131.25 109.375 131.25Z" stroke="white" stroke-width="5" stroke-linecap="round" stroke-linejoin="round"/>
<path d="M94.7915 127.604V160.417L109.375 149.479L123.958 160.417V127.604" stroke="white" stroke-width="5" stroke-linecap="round" stroke-linejoin="round"/>
<path d="M72.9167 138.542H36.4583C32.5906 138.542 28.8813 137.005 26.1464 134.27C23.4115 131.535 21.875 127.826 21.875 123.958V51.0416C21.875 43.0208 28.4375 36.4583 36.4583 36.4583H138.542C142.409 36.4583 146.119 37.9947 148.854 40.7296C151.589 43.4645 153.125 47.1739 153.125 51.0416V123.958C153.122 126.516 152.447 129.027 151.167 131.241C149.888 133.456 148.048 135.294 145.833 136.573" stroke="white" stroke-width="5" stroke-linecap="round" stroke-linejoin="round"/>
<path d="M43.75 65.625H131.25" stroke="white" stroke-width="5" stroke-linecap="round" stroke-linejoin="round"/>
<path d="M43.75 87.5H65.625" stroke="white" stroke-width="5" stroke-linecap="round" stroke-linejoin="round"/>
<path d="M43.75 109.375H58.3333" stroke="white" stroke-width="5" stroke-linecap="round" stroke-linejoin="round"/>
</svg>
