<svg width="175" height="175" viewBox="0 0 175 175" fill="none" xmlns="http://www.w3.org/2000/svg">
<path d="M123.958 58.3334V36.4584C123.958 34.5245 123.19 32.6699 121.822 31.3024C120.455 29.935 118.6 29.1667 116.666 29.1667H43.7498C39.8821 29.1667 36.1728 30.7032 33.4379 33.4381C30.703 36.173 29.1665 39.8823 29.1665 43.7501M29.1665 43.7501C29.1665 47.6178 30.703 51.3271 33.4379 54.0621C36.1728 56.797 39.8821 58.3334 43.7498 58.3334H131.25C133.184 58.3334 135.038 59.1016 136.406 60.4691C137.773 61.8365 138.541 63.6912 138.541 65.6251V87.5001M29.1665 43.7501V131.25C29.1665 135.118 30.703 138.827 33.4379 141.562C36.1728 144.297 39.8821 145.833 43.7498 145.833H131.25C133.184 145.833 135.038 145.065 136.406 143.698C137.773 142.33 138.541 140.476 138.541 138.542V116.667" stroke="white" stroke-width="5" stroke-linecap="round" stroke-linejoin="round"/>
<path d="M145.833 87.5V116.667H116.667C112.799 116.667 109.09 115.13 106.355 112.395C103.62 109.66 102.083 105.951 102.083 102.083C102.083 98.2156 103.62 94.5063 106.355 91.7714C109.09 89.0365 112.799 87.5 116.667 87.5H145.833Z" stroke="white" stroke-width="5" stroke-linecap="round" stroke-linejoin="round"/>
</svg>
