<svg width="173" height="173" viewBox="0 0 173 173" fill="none" xmlns="http://www.w3.org/2000/svg">
<path d="M86.4988 21.54C103.27 36.378 125.159 44.1036 147.529 43.08C150.786 54.1589 151.782 65.7793 150.459 77.2509C149.136 88.7225 145.521 99.8111 139.828 109.858C134.134 119.905 126.48 128.704 117.319 135.734C108.157 142.764 97.6766 147.881 86.4988 150.78C75.3211 147.881 64.8402 142.764 55.679 135.734C46.5178 128.704 38.8632 119.905 33.1701 109.858C27.477 99.8111 23.8615 88.7225 22.5385 77.2509C21.2155 65.7793 22.2121 54.1589 25.4688 43.08C47.8383 44.1036 69.7276 36.378 86.4988 21.54Z" stroke="white" stroke-width="5" stroke-linecap="round" stroke-linejoin="round"/>
</svg>
